# xmcd CD database file
#
# Track frame offsets:
#	150
#	15074
#	33182
#	50448
#	69150
#
# Disc length: 1136 seconds
#
# Revision: 0
# Processed by: cddbd v1.5.1PL2 Copyright (c) Steve Scherf et al.
# Submitted via: CDex 1.50beta8
#
DISCID=2a046e05
DTITLE=kenna - Tropical flower
DYEAR=2006
DGENRE=J-Pop
TTITLE0=TIME FOR LOVE
TTITLE1=GIVE IN
TTITLE2=Keep on Moving
TTITLE3=CLOSE TO ME
TTITLE4=I GOT YOU
EXTD=YEAR: 2006
EXTT0=
EXTT1=
EXTT2=
EXTT3=
EXTT4=
PLAYORDER=
